<?xml version="1.0" encoding="UTF-8" standalone="no"?><!DOCTYPE svg PUBLIC "-//W3C//DTD SVG 1.1//EN" "http://www.w3.org/Graphics/SVG/1.1/DTD/svg11.dtd"><svg width="100%" height="100%" viewBox="0 0 910 106" version="1.1" xmlns="http://www.w3.org/2000/svg" xmlns:xlink="http://www.w3.org/1999/xlink" xml:space="preserve" xmlns:serif="http://www.serif.com/" style="fill-rule:evenodd;clip-rule:evenodd;stroke-linejoin:round;stroke-miterlimit:2;"><path d="M38.493,105.89l0,-11.095c-22.192,0 -25.616,-16.713 -25.616,-42.055c0,-24.932 3.698,-41.781 25.616,-41.781l0,-10.959c-30.685,0 -38.493,20.274 -38.493,52.74c0,32.602 7.671,53.15 38.493,53.15Z" style="fill:#fcf1c0;fill-rule:nonzero;"/><path d="M118.082,71.918c0,-9.452 -5.068,-18.356 -16.438,-21.781c9.178,-2.877 14.109,-9.589 14.383,-18.493c0.548,-12.74 -6.438,-23.425 -31.78,-23.836l0,12.192c15.89,0.548 17.397,6.301 17.397,12.877c0,6.575 -2.055,13.287 -19.589,13.287c-17.671,0 -19.589,-6.712 -19.589,-13.287c0,-6.576 1.507,-12.329 17.123,-12.877l0,-12.192c-24.657,0.411 -32.055,9.726 -32.055,23.836c0,9.726 3.699,17.26 14.658,20.822c-11.918,3.835 -16.439,12.055 -16.439,20.959c0,11.506 6.85,24.52 32.877,24.52l0.959,0l0,-12.329c-14.521,-0.685 -19.041,-6.712 -19.041,-13.972c0,-7.26 4.384,-14.795 21.507,-14.795c16.849,0 21.233,7.535 21.233,14.795c0,7.26 -4.11,13.424 -19.041,13.972l0,12.329c26.986,0 33.835,-12.74 33.835,-26.027Z" style="fill:#fcf1c0;fill-rule:nonzero;"/><path d="M133.836,21.644l0,-11.918l-12.192,1.507l0,10.411l12.192,0Zm19.589,75.205l0,-87.671l-14.658,0l-0.411,0l0,87.671l15.069,0Z" style="fill:#fcf1c0;fill-rule:nonzero;"/><path d="M198.767,20.685l0,-12.466c-22.192,0.822 -30,13.973 -30,31.233l14.658,0c0,-10.548 3.835,-17.945 15.342,-18.767Zm34.932,16.438c0.822,-16.164 -7.672,-28.082 -30.411,-28.904l0,12.329c11.643,0.685 16.027,6.575 15.479,15.753c-1.096,20.548 -50.274,13.699 -50.822,47.398l-0.137,13.15l14.658,0l0,-7.397l0,-6.438c0,-21.644 49.589,-15.48 51.233,-45.891Zm-0.137,59.863l0,-12.328l-46.439,0l0,12.191c15.069,0 23.699,0 46.439,0.137Z" style="fill:#fcf1c0;fill-rule:nonzero;"/><path d="M279.452,52.74c0,-32.466 -7.945,-52.74 -38.493,-52.74l0,10.959c21.918,0 25.616,16.849 25.616,41.781c0,25.342 -3.424,42.055 -25.616,42.055l0,11.095c30.822,0 38.493,-20.548 38.493,-53.15Z" style="fill:#fcf1c0;fill-rule:nonzero;"/><path d="M401.507,78.493l0,-12.055l-15.343,0l0,-57.26l-20,0.137l-41.37,55.48l0,13.698l41.644,0l0,-12.055l-27.26,0l31.918,-42.328l0,72.739l15.068,0l0,-18.356l15.343,0Z" style="fill:#fcf1c0;fill-rule:nonzero;"/><path d="M480.548,71.918c0,-9.452 -5.069,-18.356 -16.438,-21.781c9.178,-2.877 14.109,-9.589 14.383,-18.493c0.548,-12.74 -6.438,-23.425 -31.781,-23.836l0,12.192c15.891,0.548 17.398,6.301 17.398,12.877c0,6.575 -2.055,13.287 -19.589,13.287c-17.672,0 -19.59,-6.712 -19.59,-13.287c0,-6.576 1.507,-12.329 17.124,-12.877l0,-12.192c-24.658,0.411 -32.055,9.726 -32.055,23.836c0,9.726 3.699,17.26 14.657,20.822c-11.917,3.835 -16.438,12.055 -16.438,20.959c0,11.506 6.849,24.52 32.877,24.52l0.959,0l0,-12.329c-14.521,-0.685 -19.041,-6.712 -19.041,-13.972c0,-7.26 4.383,-14.795 21.507,-14.795c16.849,0 21.232,7.535 21.232,14.795c0,7.26 -4.109,13.424 -19.041,13.972l0,12.329c26.987,0 33.836,-12.74 33.836,-26.027Z" style="fill:#fcf1c0;fill-rule:nonzero;"/><path d="M537.397,9.041l-43.972,0.137l-5.343,0l0,12.466l42.466,0l6.849,-12.603Zm12.466,14.384l0,-14.384l-7.26,0l-47.535,87.808l16.302,0l38.493,-73.424Z" style="fill:#fcf1c0;fill-rule:nonzero;"/><rect x="555.753" y="55.479" width="40.274" height="12.055" style="fill:#fcf1c0;fill-rule:nonzero;"/><path d="M668.904,25.479l0,-16.301l-59.589,0l0,12.877l43.151,0l-23.973,14.52l18.904,0l21.507,-11.096Zm3.288,43.836c0,-18.356 -12.877,-28.082 -28.219,-28.082l-22.466,0l0,11.918l13.15,0.274c18.357,0.137 22.877,6.575 22.877,15.89c0,7.808 -4.52,15.343 -15.616,16.301l0,12.329c21.507,-0.959 30.274,-13.972 30.274,-28.63Zm-34.932,28.63l0,-12.603c-11.507,-0.821 -16.986,-8.219 -16.986,-18.63l-14.11,0c0,17.124 8.904,30.274 31.096,31.233Z" style="fill:#fcf1c0;fill-rule:nonzero;"/><path d="M756.575,78.493l0,-12.055l-15.342,0l0,-57.26l-20,0.137l-41.37,55.48l0,13.698l41.644,0l0,-12.055l-27.26,0l31.917,-42.328l0,72.739l15.069,0l0,-18.356l15.342,0Z" style="fill:#fcf1c0;fill-rule:nonzero;"/><path d="M831.918,36.301c0,-19.726 -10.274,-27.945 -30.137,-28.767l0,12.466c10.959,0.685 15.342,6.027 15.342,16.301l14.795,0Zm1.918,32.466c0,-20.411 -15.48,-27.397 -31.507,-27.397c-15.617,0 -22.877,6.575 -24.521,12.74c-0.411,-19.042 1.918,-33.425 19.315,-34.247l0,-12.329c-23.424,0.685 -33.835,13.699 -33.835,45.343c0,28.356 7.123,44.109 33.835,45.205l0,-12.329c-12.329,-1.095 -17.945,-8.767 -17.945,-16.986c0,-8.493 6.027,-15.616 19.726,-15.616c15.343,0 20.137,6.849 20.137,15.616c0,10 -6.712,16.438 -17.26,17.123l0,12.192c22.739,-0.685 32.055,-13.835 32.055,-29.315Z" style="fill:#fcf1c0;fill-rule:nonzero;"/><path d="M906.438,25.479l0,-16.301l-59.589,0l0,12.877l43.151,0l-23.973,14.52l18.904,0l21.507,-11.096Zm3.288,43.836c0,-18.356 -12.877,-28.082 -28.219,-28.082l-22.466,0l0,11.918l13.151,0.274c18.356,0.137 22.876,6.575 22.876,15.89c0,7.808 -4.52,15.343 -15.616,16.301l0,12.329c21.507,-0.959 30.274,-13.972 30.274,-28.63Zm-34.932,28.63l0,-12.603c-11.506,-0.821 -16.986,-8.219 -16.986,-18.63l-14.109,0c0,17.124 8.904,30.274 31.095,31.233Z" style="fill:#fcf1c0;fill-rule:nonzero;"/></svg>