<?xml version="1.0" encoding="UTF-8" standalone="no"?><!DOCTYPE svg PUBLIC "-//W3C//DTD SVG 1.1//EN" "http://www.w3.org/Graphics/SVG/1.1/DTD/svg11.dtd"><svg width="100%" height="100%" viewBox="0 0 835 106" version="1.1" xmlns="http://www.w3.org/2000/svg" xmlns:xlink="http://www.w3.org/1999/xlink" xml:space="preserve" xmlns:serif="http://www.serif.com/" style="fill-rule:evenodd;clip-rule:evenodd;stroke-linejoin:round;stroke-miterlimit:2;"><path d="M38.493,105.89l0,-11.095c-22.192,0 -25.616,-16.713 -25.616,-42.055c0,-24.932 3.698,-41.781 25.616,-41.781l0,-10.959c-30.685,0 -38.493,20.274 -38.493,52.74c0,32.602 7.671,53.15 38.493,53.15Z" style="fill:#fcf1c0;fill-rule:nonzero;"/><path d="M118.082,71.918c0,-9.452 -5.068,-18.356 -16.438,-21.781c9.178,-2.877 14.109,-9.589 14.383,-18.493c0.548,-12.74 -6.438,-23.425 -31.78,-23.836l0,12.192c15.89,0.548 17.397,6.301 17.397,12.877c0,6.575 -2.055,13.287 -19.589,13.287c-17.671,0 -19.589,-6.712 -19.589,-13.287c0,-6.576 1.507,-12.329 17.123,-12.877l0,-12.192c-24.657,0.411 -32.055,9.726 -32.055,23.836c0,9.726 3.699,17.26 14.658,20.822c-11.918,3.835 -16.439,12.055 -16.439,20.959c0,11.506 6.85,24.52 32.877,24.52l0.959,0l0,-12.329c-14.521,-0.685 -19.041,-6.712 -19.041,-13.972c0,-7.26 4.384,-14.795 21.507,-14.795c16.849,0 21.233,7.535 21.233,14.795c0,7.26 -4.11,13.424 -19.041,13.972l0,12.329c26.986,0 33.835,-12.74 33.835,-26.027Z" style="fill:#fcf1c0;fill-rule:nonzero;"/><path d="M133.836,21.644l0,-11.918l-12.192,1.507l0,10.411l12.192,0Zm19.589,75.205l0,-87.671l-14.658,0l-0.411,0l0,87.671l15.069,0Z" style="fill:#fcf1c0;fill-rule:nonzero;"/><path d="M198.767,20.685l0,-12.466c-22.192,0.822 -30,13.973 -30,31.233l14.658,0c0,-10.548 3.835,-17.945 15.342,-18.767Zm34.932,16.438c0.822,-16.164 -7.672,-28.082 -30.411,-28.904l0,12.329c11.643,0.685 16.027,6.575 15.479,15.753c-1.096,20.548 -50.274,13.699 -50.822,47.398l-0.137,13.15l14.658,0l0,-7.397l0,-6.438c0,-21.644 49.589,-15.48 51.233,-45.891Zm-0.137,59.863l0,-12.328l-46.439,0l0,12.191c15.069,0 23.699,0 46.439,0.137Z" style="fill:#fcf1c0;fill-rule:nonzero;"/><path d="M279.452,52.74c0,-32.466 -7.945,-52.74 -38.493,-52.74l0,10.959c21.918,0 25.616,16.849 25.616,41.781c0,25.342 -3.424,42.055 -25.616,42.055l0,11.095c30.822,0 38.493,-20.548 38.493,-53.15Z" style="fill:#fcf1c0;fill-rule:nonzero;"/><rect x="331.507" y="9.178" width="15.068" height="87.671" style="fill:#fcf1c0;fill-rule:nonzero;"/><path d="M377.397,21.644l0,-12.466l-20.548,0l0,12.466l20.548,0Zm44.521,0l0,-12.466l-39.863,0l0,87.671l14.657,0l0,-75.205l25.206,0Z" style="fill:#fcf1c0;fill-rule:nonzero;"/><path d="M503.425,39.041c-0.137,-17.808 -10,-29.863 -32.877,-30.822l0,12.74c12.192,1.096 17.26,7.123 17.945,18.082l14.932,0Zm1.232,32.192c0,-32.055 -56.712,-19.178 -57.534,-36.849c-0.411,-8.357 5.48,-13.425 18.767,-13.562l0,-12.603c-23.972,0.274 -34.109,11.37 -33.698,26.849c0.548,30.959 59.041,15.891 57.671,37.535c-0.274,6.438 -4.658,11.918 -19.315,12.328l0,13.014c26.575,-0.548 34.109,-14.383 34.109,-26.712Zm-38.767,26.712l0,-13.014c-15.616,-0.958 -20.685,-9.178 -21.096,-19.452l-15.068,0c0.274,19.042 9.863,31.37 36.164,32.466Z" style="fill:#fcf1c0;fill-rule:nonzero;"/><rect x="516.712" y="55.479" width="40.274" height="12.055" style="fill:#fcf1c0;fill-rule:nonzero;"/><path d="M631.096,21.644l0,-12.466l-40,0l0,12.466l40,0Zm-3.288,36.575l0,-12.192l-41.37,0l0,-36.849l-14.931,0l0,87.671l14.931,0l0,-38.63l41.37,0Z" style="fill:#fcf1c0;fill-rule:nonzero;"/><rect x="642.877" y="9.178" width="15.068" height="87.671" style="fill:#fcf1c0;fill-rule:nonzero;"/><path d="M755.753,96.849l0,-87.808l-15.068,0l0,68.082l-46.986,-68.082l-17.398,0l60.822,87.808l18.63,0Zm-64.52,0l0,-58.082l-15.069,-21.37l0,79.452l15.069,0Z" style="fill:#fcf1c0;fill-rule:nonzero;"/><path d="M834.794,21.644l0,-12.466l-41.369,0l0,12.466l41.369,0Zm-4.246,36.575l0,-12.192l-41.781,0l0,-36.849l-14.931,0l0,87.671l14.931,0l0,-38.63l41.781,0Zm4.246,38.63l0,-12.465l-41.369,0l0,12.465l41.369,0Z" style="fill:#fcf1c0;fill-rule:nonzero;"/></svg>