<?xml version="1.0" encoding="UTF-8" standalone="no"?><!DOCTYPE svg PUBLIC "-//W3C//DTD SVG 1.1//EN" "http://www.w3.org/Graphics/SVG/1.1/DTD/svg11.dtd"><svg width="100%" height="100%" viewBox="0 0 134 61" version="1.1" xmlns="http://www.w3.org/2000/svg" xmlns:xlink="http://www.w3.org/1999/xlink" xml:space="preserve" xmlns:serif="http://www.serif.com/" style="fill-rule:evenodd;clip-rule:evenodd;stroke-linejoin:round;stroke-miterlimit:2;"><path d="M45.573,16.803c0.056,0.566 0.085,1.104 0.085,1.613l0,1.527c0,2.207 -0.524,4.314 -1.57,6.323c-1.047,2.008 -2.518,3.791 -4.413,5.346c-1.896,1.556 -4.145,2.787 -6.747,3.692c-2.603,0.905 -5.46,1.358 -8.572,1.358c-4.639,0 -8.104,-1.047 -10.396,-3.14c-2.291,-2.093 -3.437,-4.809 -3.437,-8.147c0,-2.716 0.92,-5.516 2.758,-8.402c1.839,-2.885 4.88,-5.516 9.124,-7.892c4.243,-2.377 9.844,-4.343 16.803,-5.899c6.959,-1.555 15.587,-2.333 25.884,-2.333c3.168,0 6.054,0.085 8.656,0.254c2.603,0.17 4.838,0.255 6.705,0.255c1.64,0 3.012,-0.085 4.116,-0.255c1.103,-0.169 2.051,-0.254 2.843,-0.254c0.679,0 1.301,0.212 1.867,0.636c0.565,0.424 0.848,1.033 0.848,1.825c0,0.509 -0.155,0.919 -0.466,1.23c-0.312,0.311 -0.863,0.524 -1.655,0.637c-0.792,0.113 -1.853,0.184 -3.183,0.212c-1.329,0.028 -3.013,0.042 -5.049,0.042c-3.961,0 -7.256,0.693 -9.887,2.08c-2.631,1.386 -5.078,3.479 -7.341,6.28c-2.263,2.8 -4.611,6.308 -7.044,10.523c-2.433,4.215 -5.46,9.123 -9.081,14.724c-1.244,1.924 -2.814,4.102 -4.71,6.535c-1.895,2.433 -4.144,4.724 -6.746,6.874c-2.603,2.15 -5.573,3.96 -8.911,5.431c-3.338,1.471 -7.101,2.207 -11.287,2.207c-1.585,0 -3.254,-0.184 -5.007,-0.552c-1.754,-0.368 -3.353,-0.962 -4.795,-1.782c-1.443,-0.82 -2.631,-1.909 -3.565,-3.267c-0.933,-1.358 -1.4,-3.027 -1.4,-5.007c0,-1.245 0.354,-2.306 1.061,-3.183c0.707,-0.877 1.711,-1.315 3.013,-1.315c0.905,0 1.654,0.297 2.248,0.891c0.595,0.594 0.892,1.344 0.892,2.249c0,0.848 -0.283,1.527 -0.849,2.037c-0.566,0.509 -1.216,0.763 -1.952,0.763c-0.396,0 -0.735,-0.056 -1.018,-0.169c0.283,2.715 1.555,4.78 3.819,6.195c2.263,1.414 5.063,2.121 8.401,2.121c3.169,0 6.082,-0.707 8.741,-2.121c2.66,-1.415 5.135,-3.282 7.426,-5.601c2.292,-2.32 4.456,-4.965 6.492,-7.935c2.037,-2.971 4.06,-6.054 6.068,-9.251c2.009,-3.196 4.031,-6.365 6.068,-9.505c2.037,-3.14 4.187,-6.011 6.45,-8.613c2.263,-2.603 4.682,-4.824 7.256,-6.662c2.574,-1.839 5.417,-3.041 8.529,-3.607l0,-0.17c-2.546,0 -5.318,-0.113 -8.317,-0.339c-2.998,-0.227 -5.771,-0.34 -8.317,-0.34c-7.128,0 -13.451,0.524 -18.967,1.57c-5.516,1.047 -10.17,2.49 -13.961,4.328c-3.79,1.839 -6.662,4.003 -8.613,6.493c-1.952,2.489 -2.928,5.176 -2.928,8.062c0,3.394 1.145,5.955 3.437,7.68c2.291,1.726 5.53,2.589 9.717,2.589c2.942,0 5.629,-0.439 8.062,-1.316c2.433,-0.877 4.526,-2.037 6.28,-3.479c1.754,-1.443 3.126,-3.098 4.116,-4.965c0.99,-1.867 1.485,-3.791 1.485,-5.771l0,-1.612c0,-0.566 -0.028,-1.132 -0.085,-1.698l1.019,0Z" style="fill:#fff;fill-rule:nonzero;"/><path d="M94.88,0l-30.043,44.639l0.17,0.17c1.132,-1.414 2.461,-3.041 3.989,-4.88c1.527,-1.838 3.182,-3.578 4.964,-5.219c1.783,-1.641 3.664,-3.027 5.644,-4.158c1.98,-1.132 3.96,-1.698 5.941,-1.698c3.451,0 5.176,1.726 5.176,5.177c0,0.905 -0.325,1.98 -0.976,3.225c-0.65,1.245 -1.471,2.56 -2.461,3.946c-0.99,1.386 -2.051,2.787 -3.182,4.201c-1.132,1.415 -2.193,2.787 -3.183,4.116c-0.99,1.33 -1.81,2.574 -2.461,3.734c-0.65,1.16 -0.976,2.136 -0.976,2.928c0,0.622 0.184,1.146 0.552,1.57c0.368,0.424 0.863,0.637 1.485,0.637c1.301,0 2.73,-0.411 4.286,-1.231c1.556,-0.82 3.168,-1.895 4.837,-3.225c1.669,-1.329 3.324,-2.815 4.965,-4.455c1.641,-1.641 3.154,-3.268 4.54,-4.88c1.386,-1.613 2.631,-3.14 3.734,-4.583c1.103,-1.443 1.91,-2.617 2.419,-3.522l0.509,0.17c-0.622,1.075 -1.499,2.376 -2.631,3.904c-1.131,1.527 -2.418,3.14 -3.861,4.837c-1.443,1.697 -2.999,3.381 -4.668,5.05c-1.669,1.669 -3.338,3.168 -5.007,4.497c-1.669,1.33 -3.324,2.405 -4.964,3.225c-1.641,0.821 -3.169,1.231 -4.583,1.231c-1.471,0 -2.674,-0.453 -3.607,-1.358c-0.934,-0.905 -1.4,-2.15 -1.4,-3.734c0,-1.132 0.325,-2.376 0.976,-3.734c0.65,-1.358 1.471,-2.73 2.461,-4.116c0.99,-1.386 2.051,-2.772 3.182,-4.158c1.132,-1.387 2.193,-2.702 3.183,-3.947c0.99,-1.244 1.81,-2.39 2.461,-3.437c0.65,-1.046 0.976,-1.938 0.976,-2.673c0,-0.905 -0.255,-1.528 -0.764,-1.867c-0.509,-0.34 -1.132,-0.509 -1.867,-0.509c-1.415,0 -2.985,0.523 -4.71,1.57c-1.726,1.046 -3.508,2.418 -5.347,4.116c-1.838,1.697 -3.663,3.606 -5.474,5.728c-1.81,2.122 -3.521,4.258 -5.134,6.407c-1.612,2.15 -3.027,4.187 -4.243,6.111c-1.217,1.923 -2.164,3.564 -2.843,4.922l-5.516,0c3.111,-4.866 6.308,-9.816 9.589,-14.851c3.282,-5.036 6.549,-10.043 9.802,-15.022c3.254,-4.978 6.436,-9.887 9.548,-14.724c3.111,-4.837 6.053,-9.462 8.826,-13.875l5.686,-0.255Z" style="fill:#fff;fill-rule:nonzero;"/><path d="M119.491,32.249c0,-0.792 -0.212,-1.386 -0.637,-1.782c-0.424,-0.396 -0.947,-0.594 -1.57,-0.594c-1.188,0 -2.475,0.466 -3.861,1.4c-1.386,0.934 -2.758,2.093 -4.116,3.479c-1.358,1.387 -2.588,2.872 -3.692,4.456c-1.103,1.584 -1.937,2.999 -2.503,4.243c1.244,-0.226 2.8,-0.665 4.667,-1.315c1.867,-0.651 3.664,-1.457 5.389,-2.419c1.726,-0.962 3.211,-2.079 4.456,-3.352c1.244,-1.273 1.867,-2.645 1.867,-4.116Zm13.748,4.498c-0.849,1.414 -1.909,2.97 -3.182,4.667c-1.273,1.698 -2.716,3.381 -4.329,5.05c-1.612,1.669 -3.338,3.281 -5.176,4.837c-1.839,1.556 -3.749,2.942 -5.729,4.159c-1.98,1.216 -3.974,2.178 -5.983,2.885c-2.008,0.707 -3.974,1.061 -5.898,1.061c-2.376,0 -4.215,-0.608 -5.516,-1.825c-1.302,-1.216 -1.952,-2.956 -1.952,-5.219c0,-2.489 0.749,-5.106 2.249,-7.85c1.499,-2.744 3.409,-5.276 5.728,-7.595c2.32,-2.32 4.866,-4.244 7.638,-5.771c2.772,-1.528 5.432,-2.292 7.977,-2.292c1.415,0 2.518,0.297 3.31,0.891c0.792,0.594 1.188,1.457 1.188,2.589c0,1.358 -0.735,2.673 -2.206,3.946c-1.471,1.273 -3.267,2.433 -5.389,3.48c-2.122,1.046 -4.399,1.98 -6.832,2.8c-2.433,0.82 -4.583,1.429 -6.45,1.825c-0.622,1.131 -1.131,2.404 -1.527,3.819c-0.396,1.414 -0.594,2.829 -0.594,4.243c0,0.679 0.07,1.344 0.212,1.994c0.141,0.651 0.368,1.245 0.679,1.782c0.311,0.538 0.735,0.976 1.273,1.316c0.537,0.339 1.202,0.509 1.994,0.509c1.867,0 4.06,-0.608 6.577,-1.825c2.518,-1.216 5.078,-2.843 7.681,-4.879c2.602,-2.037 5.092,-4.357 7.468,-6.959c2.376,-2.603 4.413,-5.29 6.11,-8.063l0.679,0.425Z" style="fill:#fff;fill-rule:nonzero;"/></svg>